Coordinates
version=1
nRows=5
nColumns=46
inDegrees=yes

Units are S.I. units (second, meters, Newtons, ...)
Angles are in degrees.

endheader
time	pelvis_tilt	pelvis_list	pelvis_rotation	pelvis_tx	pelvis_ty	pelvis_tz	bb_angle	bb_tx	bb_ty	bb_tz	hip_flexion_r	hip_adduction_r	hip_rotation_r	knee_angle_r	knee_angle_r_beta	ankle_angle_r	subtalar_angle_r	mtp_angle_r	crank_angle_r	hip_flexion_l	hip_adduction_l	hip_rotation_l	knee_angle_l	knee_angle_l_beta	ankle_angle_l	subtalar_angle_l	mtp_angle_l	crank_angle_l	lumbar_extension	lumbar_bending	lumbar_rotation	arm_flex_r	arm_add_r	arm_rot_r	elbow_flex_r	pro_sup_r	wrist_flex_r	wrist_dev_r	arm_flex_l	arm_add_l	arm_rot_l	elbow_flex_l	pro_sup_l	wrist_flex_l	wrist_dev_l
      2.50000000	    -16.26359160	     -7.15439874	     -2.58682066	      0.15513313	      1.18130066	     -0.25680611	      0.00000000	      0.50000000	      0.00000000	      0.25000000	     67.60644041	     -3.01301479	     -8.27835893	     96.23278848	      1.67957901	     -1.65615988	     -4.41750221	      0.00000000	      0.00000000	     52.33207590	     -8.39290525	      8.12300936	     43.02175430	      0.75087126	      5.66670471	    -16.07673746	      0.00000000	      0.00000000	    -58.01632984	      1.97687927	     13.01938076	     89.74530465	     -9.66419153	     27.06074266	     39.26899545	     18.72584482	      0.00000000	      0.00000000	     89.10997632	      6.77160501	     16.77202704	     35.29596616	     18.51524486	      0.00000000	      0.00000000
      2.50500000	    -16.02615379	     -7.38597311	     -2.82942143	      0.15943065	      1.17916680	     -0.25757486	      0.00000000	      0.50000000	      0.00000000	      0.25000000	     67.95345582	     -2.92117636	     -8.28793912	     97.38576824	      1.69970230	     -1.63696443	     -4.20137818	      0.00000000	      0.00000000	     51.68135656	     -8.62534732	      8.31823788	     43.20121694	      0.75400348	      5.71404380	    -16.38177694	      0.00000000	      0.00000000	    -57.87585299	      2.06312362	     13.52904104	     89.73713448	    -10.30526565	     29.06912868	     38.30588565	     19.03754312	      0.00000000	      0.00000000	     89.03064731	      7.26390476	     16.97179706	     33.79073454	     18.88169963	      0.00000000	      0.00000000
      2.51000000	    -15.50175404	     -7.74882988	     -2.96112901	      0.16420310	      1.17782174	     -0.25824921	      0.00000000	      0.50000000	      0.00000000	      0.25000000	     67.85422890	     -2.74782439	     -8.39688312	     98.42571691	      1.71785283	     -1.56951837	     -4.03976027	      0.00000000	      0.00000000	     50.73642923	     -8.97888233	      8.41980275	     43.38615568	      0.75723127	      5.89839191	    -16.53998209	      0.00000000	      0.00000000	    -58.17148634	      2.27331805	     14.03990622	     89.72146060	    -10.53740121	     29.71913055	     37.83304350	     19.14882157	      0.00000000	      0.00000000	     88.75478246	      7.39739794	     17.06710092	     33.59083914	     19.11496768	      0.00000000	      0.00000000
      2.51500000	    -15.14747179	     -7.96090258	     -3.13785055	      0.16877992	      1.17594958	     -0.25891901	      0.00000000	      0.50000000	      0.00000000	      0.25000000	     68.01461344	     -2.66001319	     -8.39227081	     99.50652864	      1.73671655	     -1.61188401	     -3.99818481	      0.00000000	      0.00000000	     50.01653180	     -9.20109348	      8.48937087	     43.70604481	      0.76281439	      6.03587396	    -16.74570103	      0.00000000	      0.00000000	    -58.30348231	      2.39713321	     14.33615121	     89.69836335	    -10.54700676	     29.97127222	     37.64359072	     19.17444056	      0.00000000	      0.00000000	     88.38714298	      7.42912028	     17.09298712	     33.40111389	     19.15972348	      0.00000000	      0.00000000
      2.52000000	    -14.81483509	     -8.11307005	     -3.28825334	      0.17327778	      1.17409527	     -0.25954604	      0.00000000	      0.50000000	      0.00000000	      0.25000000	     68.19234971	     -2.60502243	     -8.34502548	    100.54554669	      1.75485084	     -1.60373577	     -3.99477696	      0.00000000	      0.00000000	     49.31313295	     -9.36974791	      8.53682152	     43.98518205	      0.76768625	      6.01247302	    -16.85875387	      0.00000000	      0.00000000	    -58.39446980	      2.52463579	     14.65105426	     89.67348409	    -10.55889992	     30.17779576	     37.42199685	     19.17458165	      0.00000000	      0.00000000	     88.01286647	      7.47246949	     17.12063848	     33.25446847	     19.18654520	      0.00000000	      0.00000000
